#!OML:ASF E:\emotionWalksFemale\Project 1\Capture day 1\Session 1\Female1.ASF
:FULLY-SPECIFIED
:DEGREES
278
root 8.48292 15.428 23.0024 183.097 11.3733 180.402
lowerback 9.1276 1.01821 0.788522
upperback -3.38453 1.53075 0.513302
thorax -8.71627 0.726285 -0.153422
lowerneck -5.79039 -0.528469 -6.63715
upperneck -0.04582 -0.30212 6.88203
head 1.03564 -0.0214638 3.40631
rclavicle -1.7217e-014 4.37326e-015
rhumerus -42.7641 1.8012 -79.6597
rradius 37.4844
rwrist 19.9878
rhand -3.53527 -52.6855
rfingers 7.12502
rthumb 22.2002 -81.4307
lclavicle -1.7217e-014 4.37326e-015
lhumerus -45.7008 -0.606724 81.8608
lradius 35.3034
lwrist -14.1976
lhand 8.61055 -28.8905
lfingers 7.12502
lthumb 33.8073 -2.06417
rfemur -8.57846 13.5742 23.425
rtibia 24.1116
rfoot -18.1928 -19.3142
rtoes -12.404
lfemur -9.46835 -7.55561 -23.9566
ltibia 26.7265
lfoot -24.8599 18.2715
ltoes -29.2049
279
root 8.48038 15.4174 22.9992 183.221 11.4572 180.475
lowerback 9.25704 1.03602 0.925981
upperback -3.34674 1.57081 0.500647
thorax -8.74669 0.736805 -0.252911
lowerneck -5.95378 -0.51952 -6.5107
upperneck -0.118058 -0.280675 6.73345
head 1.03766 -0.00860842 3.33122
rclavicle 1.22532e-015 1.66979e-014
rhumerus -42.6569 1.69874 -79.5165
rradius 37.352
rwrist 20.0367
rhand -3.80487 -52.3174
rfingers 7.12502
rthumb 21.9413 -81.0931
lclavicle 1.22532e-015 1.66979e-014
lhumerus -45.5081 -0.224918 81.4742
lradius 34.8743
lwrist -15.0833
lhand 9.0593 -28.8478
lfingers 7.12502
lthumb 34.2336 -2.11617
rfemur -8.96397 13.1906 23.4389
rtibia 24.5804
rfoot -18.5342 -19.0855
rtoes -12.9795
lfemur -9.85806 -7.05605 -23.843
ltibia 27.2152
lfoot -25.2037 17.9839
ltoes -29.7848
280
root 8.47686 15.4052 22.996 183.321 11.4674 180.536
lowerback 9.65921 1.22389 1.1017
upperback -3.4732 1.83531 0.296932
thorax -9.10506 0.844413 -0.623959
lowerneck -5.7201 -0.665416 -5.81578
upperneck -0.389994 -0.5122 6.52895
head 0.917589 -0.126475 3.11689
rclavicle -5.1917e-015 7.35503e-015
rhumerus -43.0206 0.982944 -79.4031
rradius 37.3306
rwrist 20.0725
rhand -4.059 -51.978
rfingers 7.12502
rthumb 21.6973 -80.7821
lclavicle -5.1917e-015 7.35503e-015
lhumerus -45.4492 -0.76332 81.2275
lradius 34.5653
lwrist -15.7416
lhand 9.35349 -28.9468
lfingers 7.12502
lthumb 34.5129 -2.27842
rfemur -9.33748 12.8026 23.4564
rtibia 25.095
rfoot -18.8807 -18.8663
rtoes -13.3725
lfemur -10.2803 -6.54363 -23.7315
ltibia 27.8106
lfoot -25.5663 17.4458
ltoes -29.4843
281
root 8.47647 15.394 22.9966 183.463 11.4145 180.505
lowerback 9.49591 1.00944 0.980032
upperback -3.27924 1.54454 0.526605
thorax -8.8126 0.720329 -0.255451
lowerneck -5.6389 -0.438665 -6.34578
upperneck -0.983998 -0.145327 6.55802
head 0.690738 0.0606001 3.2334
rclavicle -4.87675e-014 -1.19271e-015
rhumerus -42.4861 1.93119 -79.3253
rradius 37.225
rwrist 19.8449
rhand -4.23829 -51.8028
rfingers 7.12502
rthumb 21.5251 -80.6267
lclavicle -4.87675e-014 -1.19271e-015
lhumerus -45.1728 0.451006 80.999
lradius 34.2686
lwrist -16.5873
lhand 9.81054 -28.7555
lfingers 7.12502
lthumb 34.9466 -2.18695
rfemur -9.81215 12.4023 23.3781
rtibia 25.6619
rfoot -19.141 -18.6536
rtoes -13.58
lfemur -10.8363 -5.9344 -23.6968
ltibia 28.4997
lfoot -25.9417 16.8333
ltoes -29.2357
282
root 8.47846 15.3817 23.0039 183.7 11.2754 180.53
lowerback 9.50798 0.917032 0.976691
upperback -3.18967 1.41889 0.545386
thorax -8.72405 0.660127 -0.211665
lowerneck -5.68935 -0.367984 -6.23179
upperneck -1.40264 -0.0231198 6.46009
head 0.555811 0.127908 3.17819
rclavicle -2.40405e-015 -1.78906e-015
rhumerus -42.2587 2.06242 -79.3003
rradius 37.2298
rwrist 19.8713
rhand -4.183 -51.5851
rfingers 7.12502
rthumb 21.5782 -80.4029
lclavicle -2.40405e-015 -1.78906e-015
lhumerus -44.7685 0.850052 80.7357
lradius 33.9139
lwrist -17.2918
lhand 10.1234 -28.4139
lfingers 7.12502
lthumb 35.2434 -1.91499
rfemur -10.4264 12.0335 23.3638
rtibia 26.2913
rfoot -19.3429 -18.5589
rtoes -13.5028
lfemur -11.571 -5.26559 -23.5776
ltibia 29.2666
lfoot -26.1194 16.3401
ltoes -30.3822
283
root 8.48018 15.3643 23.0133 183.959 11.0942 180.621
lowerback 9.63982 0.923502 1.11006
upperback -3.16498 1.43603 0.442751
thorax -8.76809 0.656598 -0.400629
lowerneck -5.86836 -0.389737 -5.79805
upperneck -1.48134 -0.0551994 6.41642
head 0.562345 0.117802 3.07993
rclavicle 2.72708e-015 5.96354e-015
rhumerus -42.2056 1.50783 -79.189
rradius 37.1743
rwrist 20.1711
rhand -4.11455 -51.1504
rfingers 7.12502
rthumb 21.644 -79.9606
lclavicle 2.72708e-015 5.96354e-015
lhumerus -44.4055 0.557537 80.559
lradius 33.6667
lwrist -17.7003
lhand 10.1637 -28.4286
lfingers 7.12502
lthumb 35.2816 -1.93875
rfemur -11.0596 11.6408 23.4134
rtibia 26.9654
rfoot -19.8732 -18.2972
rtoes -12.5063
lfemur -12.3688 -4.66734 -23.3918
ltibia 30.0976
lfoot -26.2187 15.8634
ltoes -31.9654
